HIERARCHY
ROOT hip
{
  OFFSET 0 0 0
  CHANNELS 6 Xposition Yposition Zposition Zrotation Yrotation Xrotation
  JOINT abdomen
  {
    OFFSET 0 20.6881 -0.73152
    CHANNELS 3 Zrotation Xrotation Yrotation
    JOINT chest
    {
      OFFSET 0 11.7043 -0.48768
      CHANNELS 3 Zrotation Xrotation Yrotation
      JOINT neck
      {
        OFFSET 0 22.1894 -2.19456
        CHANNELS 3 Zrotation Xrotation Yrotation
        JOINT head
        {
          OFFSET -0.24384 7.07133 1.2192
          CHANNELS 3 Zrotation Xrotation Yrotation
          JOINT leftEye
          {
            OFFSET 4.14528 8.04674 8.04672
            CHANNELS 3 Zrotation Xrotation Yrotation
            End Site
            {
              OFFSET 1 0 0
            }
          }
          JOINT rightEye
          {
            OFFSET -3.6576 8.04674 8.04672
            CHANNELS 3 Zrotation Xrotation Yrotation
            End Site
            {
              OFFSET 1 0 0
            }
          }
        }
      }
      JOINT rCollar
      {
        OFFSET -2.68224 19.2634 -4.8768
        CHANNELS 3 Zrotation Xrotation Yrotation
        JOINT rShldr
        {
          OFFSET -8.77824 -1.95073 1.46304
          CHANNELS 3 Zrotation Xrotation Yrotation
          JOINT rForeArm
          {
            OFFSET -28.1742 -1.7115 0.48768
            CHANNELS 3 Zrotation Xrotation Yrotation
            JOINT rHand
            {
              OFFSET -22.5879 0.773209 7.07136
              CHANNELS 3 Zrotation Xrotation Yrotation
              JOINT rThumb1
              {
                OFFSET -1.2192 -0.487915 3.41376
                CHANNELS 3 Zrotation Xrotation Yrotation
                JOINT rThumb2
                {
                  OFFSET -3.37035 -0.52449 3.41376
                  CHANNELS 3 Zrotation Xrotation Yrotation
                  End Site
                  {
                    OFFSET -1.78271 -1.18214 1.43049
                  }
                }
              }
              JOINT rIndex1
              {
                OFFSET -7.75947 0.938293 5.60832
                CHANNELS 3 Zrotation Xrotation Yrotation
                JOINT rIndex2
                {
                  OFFSET -2.54057 -0.884171 1.56538
                  CHANNELS 3 Zrotation Xrotation Yrotation
                  End Site
                  {
                    OFFSET -1.62519 -0.234802 1.16502
                  }
                }
              }
              JOINT rMid1
              {
                OFFSET -8.24714 1.18213 3.41376
                CHANNELS 3 Zrotation Xrotation Yrotation
                JOINT rMid2
                {
                  OFFSET -3.10165 -0.590103 1.0647
                  CHANNELS 3 Zrotation Xrotation Yrotation
                  End Site
                  {
                    OFFSET -2.48547 -0.328903 0.83742
                  }
                }
              }
              JOINT rRing1
              {
                OFFSET -8.82822 0.546677 1.51678
                CHANNELS 3 Zrotation Xrotation Yrotation
                JOINT rRing2
                {
                  OFFSET -2.60934 -0.819778 -0.0198488
                  CHANNELS 3 Zrotation Xrotation Yrotation
                  End Site
                  {
                    OFFSET -2.33842 -0.294052 0.168128
                  }
                }
              }
              JOINT rPinky1
              {
                OFFSET -8.27202 -0.0477905 -0.4584
                CHANNELS 3 Zrotation Xrotation Yrotation
                JOINT rPinky2
                {
                  OFFSET -1.82734 -0.647385 -0.700984
                  CHANNELS 3 Zrotation Xrotation Yrotation
                  End Site
                  {
                    OFFSET -1.69225 -0.51767 -0.607171
                  }
                }
              }
            }
          }
        }
      }
      JOINT lCollar
      {
        OFFSET 2.68224 19.2634 -4.8768
        CHANNELS 3 Zrotation Xrotation Yrotation
        JOINT lShldr
        {
          OFFSET 8.77824 -1.95073 1.46304
          CHANNELS 3 Zrotation Xrotation Yrotation
          JOINT lForeArm
          {
            OFFSET 28.1742 -1.7115 0.48768
            CHANNELS 3 Zrotation Xrotation Yrotation
            JOINT lHand
            {
              OFFSET 22.5879 0.773209 7.07136
              CHANNELS 3 Zrotation Xrotation Yrotation
              JOINT lThumb1
              {
                OFFSET 1.2192 -0.487915 3.41376
                CHANNELS 3 Zrotation Xrotation Yrotation
                JOINT lThumb2
                {
                  OFFSET 3.37035 -0.52449 3.41376
                  CHANNELS 3 Zrotation Xrotation Yrotation
                  End Site
                  {
                    OFFSET 1.78271 -1.18214 1.43049
                  }
                }
              }
              JOINT lIndex1
              {
                OFFSET 7.75947 0.938293 5.60832
                CHANNELS 3 Zrotation Xrotation Yrotation
                JOINT lIndex2
                {
                  OFFSET 2.54057 -0.884171 1.56538
                  CHANNELS 3 Zrotation Xrotation Yrotation
                  End Site
                  {
                    OFFSET 1.62519 -0.234802 1.16502
                  }
                }
              }
              JOINT lMid1
              {
                OFFSET 8.24714 1.18213 3.41376
                CHANNELS 3 Zrotation Xrotation Yrotation
                JOINT lMid2
                {
                  OFFSET 3.10165 -0.590103 1.0647
                  CHANNELS 3 Zrotation Xrotation Yrotation
                  End Site
                  {
                    OFFSET 2.48547 -0.328903 0.83742
                  }
                }
              }
              JOINT lRing1
              {
                OFFSET 8.82822 0.546677 1.51678
                CHANNELS 3 Zrotation Xrotation Yrotation
                JOINT lRing2
                {
                  OFFSET 2.60934 -0.819778 -0.0198488
                  CHANNELS 3 Zrotation Xrotation Yrotation
                  End Site
                  {
                    OFFSET 2.33842 -0.294052 0.168128
                  }
                }
              }
              JOINT lPinky1
              {
                OFFSET 8.27202 -0.0477905 -0.4584
                CHANNELS 3 Zrotation Xrotation Yrotation
                JOINT lPinky2
                {
                  OFFSET 1.82734 -0.647385 -0.700984
                  CHANNELS 3 Zrotation Xrotation Yrotation
                  End Site
                  {
                    OFFSET 1.69225 -0.51767 -0.607171
                  }
                }
              }
            }
          }
        }
      }
    }
  }
  JOINT rButtock
  {
    OFFSET -8.77824 4.35084 1.2192
    CHANNELS 3 Zrotation Xrotation Yrotation
    JOINT rThigh
    {
      OFFSET 0 -1.70687 -2.19456
      CHANNELS 3 Zrotation Xrotation Yrotation
      JOINT rShin
      {
        OFFSET 0 -36.8199 0.73152
        CHANNELS 3 Zrotation Xrotation Yrotation
        JOINT rFoot
        {
          OFFSET 0.73152 -45.1104 -5.12064
          CHANNELS 3 Zrotation Xrotation Yrotation
          End Site
          {
            OFFSET -1.1221 -3.69964 12.103
          }
        }
      }
    }
  }
  JOINT lButtock
  {
    OFFSET 8.77824 4.35084 1.2192
    CHANNELS 3 Zrotation Xrotation Yrotation
    JOINT lThigh
    {
      OFFSET 0 -1.70687 -2.19456
      CHANNELS 3 Zrotation Xrotation Yrotation
      JOINT lShin
      {
        OFFSET 0 -36.8199 0.73152
        CHANNELS 3 Zrotation Xrotation Yrotation
        JOINT lFoot
        {
          OFFSET -0.73152 -45.1104 -5.12064
          CHANNELS 3 Zrotation Xrotation Yrotation
          End Site
          {
            OFFSET 1.1221 -3.69964 12.103
          }
        }
      }
    }
  }
}
MOTION
Frames:	5
Frame Time:	0.00833333
6.3333035 82.5044 0.72688985 -104.78128 -82.7531 112.300446 7.4427605 -0.7808742 5.663028 9.638718 -12.695181 2.6753953 -10.565701 22.366205 -5.50132 2.7896152 -28.980597 -11.401088 -0.0 0.0 -0.0 -0.0 0.0 -0.0 -0.0 0.0 -0.0 77.7686 37.236607 14.060401 -27.1752 -26.934904 62.306404 -1.662877 -33.98842 -5.4372897 -0.0 0.0 -0.0 -0.0 0.0 -0.0 -0.0 0.0 -0.0 7.7309012 5.4749126 0.41732216 -0.0 0.0 -0.0 2.9055667 0.9650755 0.103008196 -0.0 0.0 -0.0 10.278597 0.731881 0.026273511 -0.0 0.0 -0.0 2.2216635 -0.73345095 -0.208321 -0.0 0.0 -0.0 -55.882195 33.3128 -5.505302 27.511204 -28.233194 -64.460304 1.6489342 33.86603 -5.4124036 0.0 0.0 0.0 0.0 0.0 0.0 0.0 0.0 0.0 -7.7309012 5.4749126 -0.41732216 0.0 0.0 0.0 -2.9055667 0.9650755 -0.103008196 0.0 0.0 0.0 -10.278597 0.731881 -0.026273511 0.0 0.0 0.0 -2.2216635 -0.73345095 0.208321 -0.0 0.0 -0.0 8.446791 -29.518795 -25.261099 -0.24394774 36.718094 0.27141953 -8.612736 -16.6086 -22.33579 0.0 0.0 0.0 9.658097 -22.761694 -0.3166 1.0794892 59.450897 -1.3552614 -0.23951319 -6.148296 -2.1115797
12.790603 82.4833 3.6713107 -39.017746 -81.5284 44.675064 2.5363545 3.388495 2.5728896 12.516983 -14.584312 2.3299468 -10.651592 21.578093 -6.740318 0.051263038 -28.4519 -14.43709 -0.0 0.0 -0.0 -0.0 0.0 -0.0 -0.0 0.0 -0.0 78.20119 34.550694 17.462301 -26.324009 -24.299885 58.218105 -1.6691425 -34.043285 -5.448428 -0.0 0.0 -0.0 -0.0 0.0 -0.0 -0.0 0.0 -0.0 7.7309012 5.4749126 0.41732216 -0.0 0.0 -0.0 2.9055667 0.9650755 0.103008196 -0.0 0.0 -0.0 10.278597 0.731881 0.026273511 -0.0 0.0 -0.0 2.2216635 -0.73345095 -0.208321 -0.0 0.0 -0.0 -49.260605 37.224 -17.4145 27.550097 -28.393406 -64.70889 1.4326646 31.876755 -5.013712 0.0 0.0 0.0 0.0 0.0 0.0 0.0 0.0 0.0 -7.7309012 5.4749126 -0.41732216 0.0 0.0 0.0 -2.9055667 0.9650755 -0.103008196 0.0 0.0 0.0 -10.278597 0.731881 -0.026273511 0.0 0.0 0.0 -2.2216635 -0.73345095 0.208321 -0.0 0.0 -0.0 3.0108747 -33.261406 -24.648098 -0.28045413 38.2945 0.5216549 -12.124187 -15.184497 -31.508299 0.0 0.0 0.0 3.950854 -11.938695 -3.2122045 0.46114677 44.4796 -0.77133334 1.0453364 -16.96249 1.9503918
18.967802 82.658 6.1384706 12.48734 -78.14306 -10.509244 -4.841031 10.112428 3.1020994 11.4334135 -15.878193 2.393594 -10.311103 20.880394 -8.530833 -0.49677318 -29.142506 -17.901703 -0.0 0.0 -0.0 -0.0 0.0 -0.0 0.0 0.0 0.0 82.133995 28.382996 13.567904 -26.207392 -23.978798 57.639294 -2.00209 -36.74692 -6.0228868 -0.0 0.0 -0.0 -0.0 0.0 -0.0 -0.0 0.0 -0.0 7.7309012 5.4749126 0.41732216 -0.0 0.0 -0.0 2.9055667 0.9650755 0.103008196 -0.0 0.0 -0.0 10.278597 0.731881 0.026273511 -0.0 0.0 -0.0 2.2216635 -0.73345095 -0.208321 0.0 0.0 0.0 -45.994503 38.3181 -34.310707 27.16521 -26.88828 -62.179607 1.2387167 29.903034 -4.6362996 -0.0 -0.0 -0.0 -0.0 -0.0 -0.0 -0.0 -0.0 -0.0 -7.7309012 5.4749126 -0.41732216 -0.0 -0.0 -0.0 -2.9055667 0.9650755 -0.103008196 -0.0 -0.0 -0.0 -10.278597 0.731881 -0.026273511 -0.0 -0.0 -0.0 -2.2216635 -0.73345095 0.208321 -0.0 0.0 -0.0 -6.574898 -36.074062 -19.18208 -0.36118105 42.745674 0.9228962 -12.302797 -12.801902 -34.244797 0.0 0.0 0.0 -5.660333 -6.3960023 -5.0321884 0.20031174 33.708565 -0.6611932 2.5002902 -22.061703 4.647717
22.903801 81.841896 7.152121 29.150972 -71.03299 -28.619986 -11.321737 14.353905 1.3985467 8.167666 -15.20442 1.1119446 -10.805494 20.286388 -9.228186 2.4979684 -30.608192 -18.357391 -0.0 0.0 -0.0 -0.0 0.0 -0.0 -0.0 0.0 -0.0 84.314606 22.074305 8.615217 -26.654099 -25.243692 59.664288 -2.4667118 -39.882576 -6.751038 -0.0 0.0 -0.0 -0.0 0.0 -0.0 -0.0 0.0 -0.0 7.7309012 5.4749126 0.41732216 -0.0 0.0 -0.0 2.9055667 0.9650755 0.103008196 -0.0 0.0 -0.0 10.278597 0.731881 0.026273511 -0.0 0.0 -0.0 2.2216635 -0.73345095 -0.208321 -0.0 0.0 -0.0 -48.704803 38.2584 -44.8915 26.165993 -23.871508 -57.52239 1.4736897 32.27178 -5.090669 -0.0 0.0 -0.0 -0.0 0.0 -0.0 -0.0 0.0 -0.0 -7.7309012 5.4749126 -0.41732216 -0.0 0.0 -0.0 -2.9055667 0.9650755 -0.103008196 -0.0 0.0 -0.0 -10.278597 0.731881 -0.026273511 -0.0 0.0 -0.0 -2.2216635 -0.73345095 0.208321 -0.0 0.0 -0.0 -14.818293 -39.960102 -10.988584 -0.66995156 52.867687 1.2931402 -7.820719 -9.849802 -25.891294 0.0 0.0 0.0 -14.1929 -7.9662514 -4.2290173 0.18209435 33.37662 -0.7362739 1.077437 -21.6088 1.3477012
25.832499 81.1076 7.6998205 30.258007 -69.01398 -32.770004 -12.364499 16.918495 -2.7789488 2.4978437 -14.075091 -1.0524015 -11.8076 19.891796 -7.656208 10.995096 -30.966198 -12.945488 -0.0 0.0 -0.0 -0.0 0.0 -0.0 -0.0 0.0 -0.0 82.5351 21.129398 7.9946404 -27.111792 -26.717205 62.016994 -2.5741928 -40.567905 -6.9172654 -0.0 0.0 -0.0 -0.0 0.0 0.0 -0.0 0.0 -0.0 7.7309012 5.4749126 0.41732216 -0.0 0.0 -0.0 2.9055667 0.9650755 0.103008196 -0.0 0.0 -0.0 10.278597 0.731881 0.026273511 -0.0 0.0 -0.0 2.2216635 -0.73345095 -0.208321 -0.0 0.0 -0.0 -56.41489 37.2126 -42.3444 25.885096 -23.143711 -56.301895 1.8915828 35.75593 -5.8140697 0.0 0.0 -0.0 0.0 0.0 -0.0 0.0 0.0 -0.0 -7.7309012 5.4749126 -0.41732216 0.0 0.0 -0.0 -2.9055667 0.9650755 -0.103008196 0.0 0.0 -0.0 -10.278597 0.731881 -0.026273511 0.0 0.0 -0.0 -2.2216635 -0.73345095 0.208321 -0.0 0.0 -0.0 -14.337828 -37.619892 -2.3055584 -1.0864869 60.95845 1.7484201 -6.375787 -9.794065 -21.034904 0.0 0.0 0.0 -15.656203 -9.319826 2.3037007 0.21527061 35.956875 -0.7086963 -2.047338 -21.38778 -5.88358
